<svg width="16" height="13" viewBox="0 0 16 13" fill="none" xmlns="http://www.w3.org/2000/svg">
<path d="M15.9608 1.69291C15.8943 1.35684 15.7444 1.03922 15.5256 0.772188C15.4812 0.716125 15.4347 0.66625 15.3839 0.615656C14.9947 0.224406 14.4533 0 13.8986 0H2.10138C1.54041 0 1.01281 0.21875 0.615781 0.615875C0.565531 0.666 0.518938 0.716375 0.472813 0.774219C0.255 1.04012 0.105719 1.35731 0.0408125 1.69384C0.0136875 1.826 0 1.96294 0 2.10147V10.387C0 10.6753 0.0585625 10.9559 0.174656 11.2228C0.275125 11.4598 0.427563 11.6844 0.615656 11.8724C0.663031 11.9196 0.710094 11.9631 0.760344 12.0055C1.13641 12.3169 1.61259 12.4883 2.10138 12.4883H13.8986C14.3905 12.4883 14.8662 12.3162 15.2413 12.002C15.2914 11.9615 15.3379 11.9189 15.3843 11.8724C15.5662 11.6908 15.7107 11.4821 15.8145 11.252L15.8282 11.2192C15.9422 10.9574 16 10.6776 16 10.387V2.10147C16 1.96475 15.9868 1.82691 15.9608 1.69291ZM1.08822 1.34112C1.11794 1.29762 1.15587 1.25297 1.20428 1.20419C1.44456 0.964031 1.76322 0.831875 2.10134 0.831875H13.8985C14.2396 0.831875 14.5584 0.96425 14.796 1.20466C14.837 1.24612 14.8762 1.29216 14.9104 1.33816L15.0006 1.45941L8.70375 6.94741C8.50962 7.11759 8.25969 7.21125 7.99991 7.21125C7.74269 7.21125 7.49297 7.11781 7.29653 6.94762L1.00594 1.46097L1.08822 1.34112ZM0.836094 10.4602C0.832687 10.4376 0.831906 10.4125 0.831906 10.387V2.27303L5.71847 6.53587L0.881219 10.7534L0.836094 10.4602ZM14.5281 11.4891C14.339 11.5983 14.1212 11.6561 13.8986 11.6561H2.10138C1.87866 11.6561 1.66094 11.5983 1.47194 11.4891L1.27419 11.3745L6.27219 7.01891L6.81994 7.49534C7.1485 7.78059 7.5675 7.93784 7.99997 7.93784C8.43403 7.93784 8.85372 7.78059 9.18206 7.49534L9.72959 7.01869L14.7259 11.3748L14.5281 11.4891ZM15.1679 10.387C15.1679 10.4121 15.1674 10.4369 15.1643 10.459L15.1209 10.755L10.2816 6.53816L15.1679 2.27509V10.387Z" fill="#6A6A6A"/>
</svg>
