<svg width="15" height="15" viewBox="0 0 15 15" fill="none" xmlns="http://www.w3.org/2000/svg">
<path d="M13.5918 1.72663L14.0997 1.22597C14.2343 1.09129 14.31 0.908621 14.31 0.718154C14.31 0.527688 14.2343 0.345023 14.0997 0.210343C13.965 0.0756624 13.7823 0 13.5918 0C13.4014 0 13.2187 0.0756624 13.084 0.210343L12.0827 1.21881L10.0586 3.24291L5.54553 7.74885C4.80601 7.26094 3.91171 7.06492 3.03592 7.19876C2.16012 7.33259 1.36518 7.78676 0.805133 8.47326C0.245086 9.15976 -0.0401939 10.0297 0.00457109 10.9145C0.049336 11.7994 0.420959 12.6361 1.04743 13.2626C1.6739 13.889 2.51062 14.2607 3.39545 14.3054C4.28029 14.3502 5.15024 14.0649 5.83674 13.5049C6.52324 12.9448 6.97741 12.1499 7.11124 11.2741C7.24508 10.3983 7.04906 9.50399 6.56115 8.76447L10.5593 4.75919L12.0756 6.28263C12.1422 6.34885 12.2213 6.40128 12.3083 6.43694C12.3952 6.47259 12.4883 6.49077 12.5823 6.49044C12.6763 6.49011 12.7693 6.47127 12.856 6.435C12.9427 6.39873 13.0214 6.34574 13.0876 6.27905C13.1538 6.21237 13.2063 6.13329 13.2419 6.04634C13.2776 5.95939 13.2958 5.86626 13.2954 5.77229C13.2951 5.67831 13.2763 5.58532 13.24 5.49862C13.2037 5.41193 13.1507 5.33322 13.084 5.267L11.5678 3.75072L12.5834 2.74225L13.084 3.24291C13.1503 3.3096 13.229 3.36259 13.3157 3.39886C13.4023 3.43513 13.4953 3.45397 13.5893 3.4543C13.6833 3.45463 13.7764 3.43645 13.8634 3.40079C13.9503 3.36514 14.0294 3.3127 14.0961 3.24649C14.1628 3.18027 14.2158 3.10156 14.252 3.01487C14.2883 2.92817 14.3071 2.83518 14.3075 2.7412C14.3078 2.64723 14.2896 2.5541 14.254 2.46715C14.2183 2.3802 14.1659 2.30112 14.0997 2.23444L13.5918 1.72663ZM3.57865 12.877C3.15428 12.877 2.73943 12.7512 2.38658 12.5154C2.03372 12.2796 1.7587 11.9445 1.5963 11.5525C1.4339 11.1604 1.39141 10.729 1.4742 10.3127C1.55699 9.89652 1.76135 9.5142 2.06143 9.21412C2.36151 8.91404 2.74383 8.70968 3.16005 8.62689C3.57627 8.5441 4.0077 8.58659 4.39977 8.74899C4.79184 8.91139 5.12695 9.18641 5.36272 9.53927C5.5985 9.89212 5.72434 10.307 5.72434 10.7313C5.72434 11.3004 5.49828 11.8462 5.09588 12.2486C4.69349 12.651 4.14772 12.877 3.57865 12.877Z" fill="#6A6A6A"/>
</svg>
